# xmcd
#
# Track frame offsets:
#	182
#	12082
#	21797
#	31285
#	42165
#	52990
#	63395
#	75810
#	87917
#	103000
#	116087
#	126287
#	136492
#	148090
#	158330
#	169742
#	181455
#	192700
#	204450
#	213745
#
# Disc length: 3011
#
# Revision: 4
# Processed by: cddbd v1.5.1PL0 Copyright (c) Steve Scherf et al.
# Submitted via: CDex 1.40Release
# Normalized: r3:DSETVAR1,TDELIM( - )
#
DISCID=130bc114
DTITLE=Various Artist - Country Classics
DYEAR=1900
DGENRE=Country
TTITLE0=Johnny Cash - I Walk The Line
TTITLE1=Benny Barnes - Poor Man's Riches
TTITLE2=Jeannie C. Riley - The Girl Most Likely To
TTITLE3=Carl Belew - Am I That Easy To Forget
TTITLE4=Roger Miller - King Of The Road
TTITLE5=Johnny Paycheck - A-11
TTITLE6=Red Simpson - Roll Truck Roll
TTITLE7=Johnny Cash - Give My Love To Rose
TTITLE8=T. Texas Tyler - Deck Of Cards
TTITLE9=Leroy Van Dyke - The Auctioneer
TTITLE10=Dave Dudley - Six Days On The Road
TTITLE11=Floyd Tillman - Slipping Around
TTITLE12=Georg Jones - Window Up Above
TTITLE13=Carl Perkins - Blue Suede Shoes
TTITLE14=Johnny Horton - All For The Love Of A Girl
TTITLE15=Floyd Cramer - Fancy Pants (Instrumental)
TTITLE16=Johnny Cash - Big River
TTITLE17=Roger Miller - Little Green Apples
TTITLE18=Maddox Brothers And Rose - Sally Let Your Bangs Hang Down
TTITLE19=Slim Willet - Don't Let The Stars Get In Your Eyes
EXTD=ID3G: 2
EXTT0=
EXTT1=
EXTT2=
EXTT3=
EXTT4=
EXTT5=
EXTT6=
EXTT7=
EXTT8=
EXTT9=
EXTT10=
EXTT11=
EXTT12=
EXTT13=
EXTT14=
EXTT15=
EXTT16=
EXTT17=
EXTT18=
EXTT19=
PLAYORDER=
